<svg width="16" height="16" viewBox="0 0 16 16" fill="none" xmlns="http://www.w3.org/2000/svg">
<g clip-path="url(#clip0_205_886)">
<path d="M2.7268 7.2229L1.16857 12.6102C0.966517 13.3092 1.51275 14 2.26874 14H13.2695C13.7823 14 14.2318 13.6719 14.3697 13.1982L15.9279 7.81089C16.1299 7.11189 15.5837 6.4211 14.8277 6.4211H3.82696C3.31413 6.4211 2.86464 6.74922 2.7268 7.2229Z" fill="black"/>
<path d="M0.315836 12.4424L1.87833 6.83236C2.08895 6.09963 2.803 5.57991 3.60778 5.57991H13.8081V5.29373C13.8081 4.40557 13.0581 3.6852 12.1335 3.6852H7.75844C7.32436 3.6852 6.90571 3.52319 6.59235 3.23291L5.75502 2.45414C5.44167 2.16384 5.02558 2.00185 4.58893 2.00185H1.89282C0.968153 2.00185 0.21817 2.72224 0.21817 3.61038V12.3932C0.21817 12.5149 0.233581 12.6309 0.260123 12.7452C0.271253 12.6441 0.286663 12.5429 0.314917 12.4442L0.315836 12.4424Z" fill="black"/>
</g>
<defs>
<clipPath id="clip0_205_886">
<rect width="16" height="12" fill="white" transform="translate(0 2)"/>
</clipPath>
</defs>
</svg>
