<svg width="16" height="16" viewBox="0 0 16 16" fill="none" xmlns="http://www.w3.org/2000/svg">
<g clip-path="url(#clip0_205_974)">
<path d="M3.135 14.0417C3.13367 14.413 3.24262 14.7763 3.44804 15.0856C3.65345 15.395 3.94608 15.6363 4.28883 15.7791C4.63158 15.9219 5.00902 15.9598 5.37329 15.8878C5.73757 15.8159 6.07228 15.6374 6.335 15.375L12.3167 9.38667C12.4917 9.21171 12.6302 9.00378 12.7244 8.77492C12.8185 8.54605 12.8663 8.3008 12.865 8.05334C12.865 8.03167 12.865 8.01167 12.865 7.99167C12.874 7.73538 12.8301 7.47998 12.7361 7.24141C12.642 7.00283 12.4998 6.78619 12.3183 6.605L6.33333 0.631671C5.97881 0.294543 5.50657 0.109328 5.01739 0.115554C4.52821 0.12178 4.06083 0.318953 3.71501 0.664994C3.36919 1.01103 3.17231 1.47853 3.16639 1.96772C3.16047 2.45691 3.34598 2.92903 3.68333 3.28334L8.4 8L3.68333 12.7167C3.50933 12.8906 3.37133 13.0972 3.27724 13.3246C3.18315 13.5519 3.13482 13.7956 3.135 14.0417Z" fill="black"/>
</g>
<defs>
<clipPath id="clip0_205_974">
<rect width="10" height="16" fill="white" transform="translate(3)"/>
</clipPath>
</defs>
</svg>
