<svg width="16" height="16" viewBox="0 0 16 16" fill="none" xmlns="http://www.w3.org/2000/svg">
<g clip-path="url(#clip0_157_1203)">
<g clip-path="url(#clip1_157_1203)">
<path d="M8 0C6.41775 0 4.87103 0.469192 3.55544 1.34824C2.23985 2.22729 1.21447 3.47672 0.608967 4.93853C0.00346626 6.40034 -0.15496 8.00887 0.153721 9.56072C0.462403 11.1126 1.22433 12.538 2.34315 13.6569C3.46197 14.7757 4.88743 15.5376 6.43928 15.8463C7.99113 16.155 9.59966 15.9965 11.0615 15.391C12.5233 14.7855 13.7727 13.7602 14.6518 12.4446C15.5308 11.129 16 9.58225 16 8C16 5.87827 15.1571 3.84344 13.6569 2.34315C12.1566 0.842854 10.1217 0 8 0ZM10.12 11.0229C10.1736 11.076 10.2161 11.1392 10.2451 11.2088C10.2741 11.2784 10.289 11.3531 10.289 11.4286C10.289 11.504 10.2741 11.5787 10.2451 11.6483C10.2161 11.718 10.1736 11.7812 10.12 11.8343C10.0669 11.8878 10.0037 11.9304 9.93404 11.9594C9.86441 11.9884 9.78972 12.0033 9.71429 12.0033C9.63885 12.0033 9.56416 11.9884 9.49453 11.9594C9.42489 11.9304 9.36169 11.8878 9.30857 11.8343L5.88 8.40571C5.82644 8.35259 5.78393 8.28939 5.75492 8.21976C5.72591 8.15012 5.71097 8.07543 5.71097 8C5.71097 7.92456 5.72591 7.84987 5.75492 7.78024C5.78393 7.71061 5.82644 7.64741 5.88 7.59428L9.30857 4.16571C9.36185 4.11243 9.4251 4.07017 9.49472 4.04134C9.56433 4.0125 9.63894 3.99766 9.71429 3.99766C9.78963 3.99766 9.86424 4.0125 9.93386 4.04134C10.0035 4.07017 10.0667 4.11243 10.12 4.16571C10.1733 4.21899 10.2155 4.28224 10.2444 4.35186C10.2732 4.42147 10.2881 4.49608 10.2881 4.57143C10.2881 4.64678 10.2732 4.72139 10.2444 4.791C10.2155 4.86061 10.1733 4.92386 10.12 4.97714L7.09143 8L10.12 11.0229Z" fill="black"/>
</g>
</g>
<defs>
<clipPath id="clip0_157_1203">
<rect width="16" height="16" fill="white"/>
</clipPath>
<clipPath id="clip1_157_1203">
<rect width="16" height="16" fill="white"/>
</clipPath>
</defs>
</svg>
