<svg width="16" height="17" viewBox="0 0 16 17" fill="none" xmlns="http://www.w3.org/2000/svg">
<g clip-path="url(#clip0_157_1162)">
<g clip-path="url(#clip1_157_1162)">
<path d="M8.01012 16.5973C12.3542 16.5973 15.8772 13.0744 15.8772 8.73029C15.8772 4.38693 12.3542 0.863251 8.01012 0.863251C3.66676 0.863251 0.143082 4.38693 0.143082 8.73029C0.143082 13.0744 3.66676 16.5973 8.01012 16.5973ZM7.44833 4.23447C7.44833 3.92556 7.70121 3.67269 8.01012 3.67269C8.31903 3.67269 8.5719 3.92556 8.5719 4.23447V8.46068L11.1711 10.5398C11.4132 10.7337 11.452 11.0879 11.258 11.3293C11.1488 11.4672 10.9857 11.5398 10.8198 11.5398C10.6962 11.5398 10.5726 11.501 10.4685 11.4162L7.65892 9.16828C7.52745 9.06196 7.44843 8.90176 7.44843 8.73007L7.44833 4.23447Z" fill="black"/>
</g>
</g>
<defs>
<clipPath id="clip0_157_1162">
<rect width="16" height="16" fill="white" transform="translate(0 0.720184)"/>
</clipPath>
<clipPath id="clip1_157_1162">
<rect width="16" height="16" fill="white" transform="translate(0 0.720184)"/>
</clipPath>
</defs>
</svg>
