<svg width="16" height="16" viewBox="0 0 16 16" fill="none" xmlns="http://www.w3.org/2000/svg">
<g clip-path="url(#clip0_157_1076)">
<g clip-path="url(#clip1_157_1076)">
<path d="M13.5584 1.60145H12.2139V1.51413C12.2139 1.24788 11.9989 1.03198 11.7339 1.03198C11.4688 1.03198 11.2539 1.24788 11.2539 1.51413V1.60145H8.48054V1.51413C8.48054 1.24788 8.2656 1.03198 8.00054 1.03198C7.73547 1.03198 7.52054 1.24788 7.52054 1.51413V1.60145H4.7472V1.51413C4.7472 1.24788 4.53227 1.03198 4.2672 1.03198C4.00214 1.03198 3.7872 1.24788 3.7872 1.51413V1.60145H2.4416C1.12427 1.60145 0.052803 2.6777 0.052803 4.00091V13.0095C0.052803 14.3327 1.12427 15.4089 2.4416 15.4089H13.5584C14.8757 15.4089 15.9472 14.3327 15.9472 13.0095V4.00038C15.9467 2.67716 14.8757 1.60145 13.5584 1.60145ZM8 12.2145C6.12 12.2145 4.58987 10.6781 4.58987 8.78966C4.58987 6.90127 6.11947 5.36484 8 5.36484C9.88054 5.36484 11.4101 6.90127 11.4101 8.78966C11.4101 10.6781 9.88 12.2145 8 12.2145Z" fill="#909090"/>
<path d="M8 6.32913C6.6496 6.32913 5.5504 7.43324 5.5504 8.78967C5.5504 10.1466 6.6496 11.2502 8 11.2502C9.3504 11.2502 10.4496 10.1461 10.4496 8.78967C10.4496 7.4327 9.3504 6.32913 8 6.32913ZM9.2976 8.66377L7.8672 9.82145C7.78187 9.8911 7.6752 9.92806 7.5664 9.92806C7.54827 9.92806 7.53013 9.92699 7.51147 9.92485C7.38453 9.91038 7.26773 9.84503 7.1888 9.74377L6.62613 9.02378C6.4624 8.81431 6.4992 8.5111 6.7072 8.34663C6.91627 8.18163 7.21707 8.2186 7.38133 8.42806L7.64373 8.76395L8.69547 7.91324C8.90187 7.74556 9.2048 7.77931 9.37067 7.9861C9.53653 8.19342 9.504 8.49717 9.2976 8.66377Z" fill="#909090"/>
</g>
</g>
<defs>
<clipPath id="clip0_157_1076">
<rect width="16" height="15" fill="white" transform="translate(0 0.720184)"/>
</clipPath>
<clipPath id="clip1_157_1076">
<rect width="16" height="15" fill="white" transform="translate(0 0.720184)"/>
</clipPath>
</defs>
</svg>
