<svg width="16" height="17" viewBox="0 0 16 17" fill="none" xmlns="http://www.w3.org/2000/svg">
<g clip-path="url(#clip0_157_1071)">
<path fill-rule="evenodd" clip-rule="evenodd" d="M7.90781 0.860107C10.132 0.860107 11.9374 2.64207 11.9374 4.83738C11.9374 7.03269 10.132 8.81465 7.90781 8.81465C5.68362 8.81465 3.87821 7.03269 3.87821 4.83738C3.87821 2.64207 5.68362 0.860107 7.90781 0.860107ZM10.7861 9.95102C13.011 9.95102 14.8157 11.7323 14.8157 13.9283V14.6577C14.8157 15.5057 14.1846 16.2245 13.3341 16.3452L13.3319 16.3459C11.5222 16.5952 9.71313 16.7202 7.90786 16.7202C6.09742 16.7209 4.28905 16.5952 2.48305 16.3452H2.48089C1.63107 16.2237 1.00072 15.5057 1.00072 14.6598C1 14.4382 1 14.1897 1 13.9283C1 11.7323 2.80469 9.95102 5.02961 9.95102L10.7861 9.95102Z" fill="#909090"/>
</g>
<defs>
<clipPath id="clip0_157_1071">
<rect width="15.8157" height="15.8601" fill="white" transform="translate(0 0.860107)"/>
</clipPath>
</defs>
</svg>
