<svg width="16" height="16" viewBox="0 0 16 16" fill="none" xmlns="http://www.w3.org/2000/svg">
<g clip-path="url(#clip0_157_1129)">
<g clip-path="url(#clip1_157_1129)">
<path d="M15.7059 2.58428L9.96792 8.81245V13.4907C9.96792 13.5989 9.92467 13.6998 9.83816 13.7646L7.82697 15.437C7.56477 15.6614 7.20344 15.7452 6.86825 15.6641C6.38077 15.5461 6.03206 15.1009 6.03206 14.6008V8.81233L0.294073 2.58416C-0.00868475 2.25979 -0.08077 1.80564 0.0922346 1.40196C0.272448 0.998282 0.6545 0.745972 1.09423 0.745972H14.9058C15.3455 0.745972 15.7275 0.998282 15.9078 1.40196C16.0808 1.80564 16.0087 2.25991 15.7059 2.58428Z" fill="black"/>
</g>
</g>
<defs>
<clipPath id="clip0_157_1129">
<rect width="16" height="15" fill="white" transform="translate(0 0.720184)"/>
</clipPath>
<clipPath id="clip1_157_1129">
<rect width="16" height="15" fill="white" transform="translate(0 0.720184)"/>
</clipPath>
</defs>
</svg>
