<svg width="16" height="16" viewBox="0 0 16 16" fill="none" xmlns="http://www.w3.org/2000/svg">
<g clip-path="url(#clip0_157_917)">
<g clip-path="url(#clip1_157_917)">
<path d="M15.6376 4.73982C15.3929 4.16794 14.7184 3.73388 14.1365 3.77506C13.5545 3.81625 12.8816 3.58655 12.5835 3.29982C12.2855 3.01308 12.0439 2.33506 12.0659 1.74417C12.0878 1.15328 11.6376 0.491104 11.062 0.259816C10.4863 0.0285293 9.70823 0.204371 9.32549 0.646351C8.94274 1.08833 8.30117 1.41308 7.89333 1.42576C7.48549 1.43843 6.83608 1.12952 6.44078 0.698628C6.04549 0.267737 5.25961 0.114074 4.69333 0.361203C4.12706 0.608331 3.69411 1.28952 3.7349 1.87724C3.77568 2.46497 3.54823 3.14457 3.26431 3.44556C2.98039 3.74655 2.30902 3.98734 1.72706 3.96833C1.1451 3.94932 0.486272 4.40239 0.257252 4.98378C0.0282324 5.56516 0.20235 6.35091 0.639997 6.73744C1.07764 7.12397 1.39921 7.7719 1.41176 8.18219C1.42431 8.59249 1.12 9.24992 0.691762 9.64912C0.263527 10.0483 0.109801 10.8404 0.357644 11.4155C0.605487 11.9905 1.27686 12.4246 1.85882 12.3834C2.44078 12.3422 3.11372 12.5719 3.41176 12.8586C3.7098 13.1454 3.95137 13.8202 3.92941 14.4111C3.90745 15.002 4.35764 15.6642 4.9349 15.8955C5.51215 16.1267 6.28862 15.9509 6.67137 15.5089C7.05411 15.0669 7.69412 14.7422 8.10196 14.7359C8.5098 14.7295 9.15921 15.0353 9.55764 15.4662C9.95608 15.897 10.7404 16.0444 11.3067 15.7972C11.8729 15.5501 12.3059 14.8721 12.2651 14.2844C12.2243 13.6966 12.4518 13.017 12.7357 12.7161C13.0196 12.4151 13.6894 12.1743 14.2745 12.198C14.8596 12.2218 15.5153 11.7656 15.7443 11.1826C15.9733 10.5996 15.8024 9.81546 15.3616 9.42576C14.9208 9.03605 14.5992 8.39605 14.5882 7.97942C14.5773 7.56279 14.8816 6.9117 15.3114 6.51249C15.5256 6.27804 15.6698 5.98727 15.7275 5.67365C15.7853 5.36004 15.7541 5.03633 15.6376 4.73982ZM9.20627 10.9085C8.65195 11.1506 8.03899 11.2211 7.44495 11.1112C6.85091 11.0014 6.3025 10.716 5.86909 10.2913C5.43569 9.86655 5.13677 9.32154 5.01016 8.72519C4.88355 8.12885 4.93494 7.50798 5.15783 6.94114C5.38071 6.37431 5.76508 5.88697 6.2623 5.54081C6.75951 5.19464 7.34723 5.0052 7.95108 4.99645C8.55494 4.9877 9.14779 5.16004 9.65464 5.49166C10.1615 5.82328 10.5595 6.29927 10.7984 6.85942C11.1187 7.60906 11.1314 8.45639 10.8338 9.21549C10.5362 9.97459 9.95257 10.5835 9.21098 10.9085H9.20627Z" fill="black"/>
</g>
</g>
<defs>
<clipPath id="clip0_157_917">
<rect width="16" height="16" fill="white"/>
</clipPath>
<clipPath id="clip1_157_917">
<rect width="16" height="16" fill="white"/>
</clipPath>
</defs>
</svg>
