<svg width="16" height="16" viewBox="0 0 16 16" fill="none" xmlns="http://www.w3.org/2000/svg">
<g clip-path="url(#clip0_157_1062)">
<g clip-path="url(#clip1_157_1062)">
<path d="M3.55555 15.8564C3.37778 15.8564 3.2 15.7948 3.04197 15.6718C2.72592 15.4256 2.60741 15.0359 2.72592 14.6461L4.08889 10.2974C4.14815 10.1128 4.08889 9.88715 3.93086 9.78458L0.375307 7.09741C0.0592572 6.85125 -0.0592612 6.46151 0.0592573 6.07176C0.177776 5.68202 0.513578 5.43587 0.888887 5.43587H5.29383C5.49136 5.43587 5.66913 5.31279 5.72839 5.10766L7.09136 0.758944C7.20987 0.369201 7.54568 0.123047 7.92099 0.123047C8.29629 0.123047 8.6321 0.369201 8.75062 0.758944L10.0938 5.12818C10.1531 5.31279 10.3309 5.45638 10.5284 5.45638H14.9333C15.3284 5.45638 15.6444 5.70253 15.763 6.09228C15.8815 6.48202 15.763 6.87176 15.4469 7.11792L11.8914 9.8051C11.7333 9.92817 11.6741 10.1333 11.7333 10.3179L13.0963 14.6666C13.2148 15.0564 13.0963 15.4461 12.7802 15.6923C12.4642 15.9384 12.0691 15.9384 11.7531 15.6923L8.19753 13.0051C8.0395 12.882 7.82222 12.882 7.6642 13.0051L4.10864 15.6923C3.91111 15.7948 3.73333 15.8564 3.55555 15.8564Z" fill="#909090"/>
</g>
</g>
<defs>
<clipPath id="clip0_157_1062">
<rect width="16" height="16" fill="white"/>
</clipPath>
<clipPath id="clip1_157_1062">
<rect width="16" height="16" fill="white"/>
</clipPath>
</defs>
</svg>
