<svg width="16" height="15" viewBox="0 0 16 15" fill="none" xmlns="http://www.w3.org/2000/svg">
<g clip-path="url(#clip0_157_915)">
<g clip-path="url(#clip1_157_915)">
<path d="M13.5584 0.881232H12.2139V0.79391C12.2139 0.52766 11.9989 0.311768 11.7339 0.311768C11.4688 0.311768 11.2539 0.52766 11.2539 0.79391V0.881232H8.48054V0.79391C8.48054 0.52766 8.2656 0.311768 8.00054 0.311768C7.73547 0.311768 7.52054 0.52766 7.52054 0.79391V0.881232H4.7472V0.79391C4.7472 0.52766 4.53227 0.311768 4.2672 0.311768C4.00214 0.311768 3.7872 0.52766 3.7872 0.79391V0.881232H2.4416C1.12427 0.881232 0.052803 1.95748 0.052803 3.2807V12.2893C0.052803 13.6125 1.12427 14.6887 2.4416 14.6887H13.5584C14.8757 14.6887 15.9472 13.6125 15.9472 12.2893V3.28016C15.9467 1.95695 14.8757 0.881232 13.5584 0.881232ZM8 11.4943C6.12 11.4943 4.58987 9.95784 4.58987 8.06945C4.58987 6.18105 6.11947 4.64462 8 4.64462C9.88054 4.64462 11.4101 6.18105 11.4101 8.06945C11.4101 9.95784 9.88 11.4943 8 11.4943Z" fill="black"/>
<path d="M8 5.60889C6.6496 5.60889 5.5504 6.71299 5.5504 8.06942C5.5504 9.42639 6.6496 10.53 8 10.53C9.3504 10.53 10.4496 9.42585 10.4496 8.06942C10.4496 6.71246 9.3504 5.60889 8 5.60889ZM9.2976 7.94353L7.8672 9.10121C7.78187 9.17085 7.6752 9.20782 7.5664 9.20782C7.54827 9.20782 7.53013 9.20674 7.51147 9.2046C7.38453 9.19014 7.26773 9.12478 7.1888 9.02353L6.62613 8.30353C6.4624 8.09407 6.4992 7.79085 6.7072 7.62639C6.91627 7.46139 7.21707 7.49835 7.38133 7.70782L7.64373 8.04371L8.69547 7.19299C8.90187 7.02532 9.2048 7.05907 9.37067 7.26585C9.53653 7.47317 9.504 7.77692 9.2976 7.94353Z" fill="black"/>
</g>
</g>
<defs>
<clipPath id="clip0_157_915">
<rect width="16" height="15" fill="white"/>
</clipPath>
<clipPath id="clip1_157_915">
<rect width="16" height="15" fill="white"/>
</clipPath>
</defs>
</svg>
