<svg width="16" height="16" viewBox="0 0 16 16" fill="none" xmlns="http://www.w3.org/2000/svg">
<g clip-path="url(#clip0_299_4032)">
<path d="M1.57143 0.533144C1.57143 0.391746 1.51499 0.256138 1.41452 0.156154C1.31406 0.0561704 1.1778 0 1.03572 0C0.893637 0 0.757376 0.0561704 0.65691 0.156154C0.556444 0.256138 0.500003 0.391746 0.500003 0.533144C0.500003 1.60157 1.235 2.14857 1.74286 2.5271L1.78572 2.55909C2.34929 2.97921 2.64286 3.23086 2.64286 3.73201C2.64286 3.87341 2.6993 4.00902 2.79977 4.109C2.90023 4.20898 3.03649 4.26516 3.17857 4.26516C3.32065 4.26516 3.45691 4.20898 3.55738 4.109C3.65785 4.00902 3.71429 3.87341 3.71429 3.73201C3.71429 2.66359 2.97929 2.11658 2.47143 1.73805L2.42857 1.70606C1.865 1.28594 1.57143 1.0343 1.57143 0.533144ZM4.78572 0.533144C4.78572 0.391746 4.72927 0.256138 4.62881 0.156154C4.52834 0.0561704 4.39208 0 4.25 0C4.10792 0 3.97166 0.0561704 3.87119 0.156154C3.77073 0.256138 3.71429 0.391746 3.71429 0.533144C3.71429 1.60157 4.44929 2.14857 4.95714 2.5271L5 2.55909C5.56357 2.97921 5.85714 3.23086 5.85714 3.73201C5.85714 3.87341 5.91359 4.00902 6.01405 4.109C6.11452 4.20898 6.25078 4.26516 6.39286 4.26516C6.53494 4.26516 6.6712 4.20898 6.77167 4.109C6.87213 4.00902 6.92857 3.87341 6.92857 3.73201C6.92857 2.66359 6.19357 2.11658 5.68572 1.73805L5.64286 1.70606C5.07929 1.28594 4.78572 1.0343 4.78572 0.533144ZM7.46429 0C7.60637 0 7.74263 0.0561704 7.84309 0.156154C7.94356 0.256138 8 0.391746 8 0.533144C8 1.0343 8.29357 1.28594 8.85714 1.70606L8.9 1.73805C9.40786 2.11658 10.1429 2.66359 10.1429 3.73201C10.1429 3.87341 10.0864 4.00902 9.98595 4.109C9.88549 4.20898 9.74922 4.26516 9.60714 4.26516C9.46506 4.26516 9.3288 4.20898 9.22834 4.109C9.12787 4.00902 9.07143 3.87341 9.07143 3.73201C9.07143 3.23086 8.77786 2.97921 8.21429 2.55909L8.17143 2.5271C7.66357 2.14857 6.92857 1.60157 6.92857 0.533144C6.92857 0.391746 6.98501 0.256138 7.08548 0.156154C7.18595 0.0561704 7.32221 0 7.46429 0ZM0.500003 6.28151C0.500003 5.75796 0.927503 5.33144 1.45465 5.33144H11.3311C11.8582 5.33144 12.2857 5.75689 12.2857 6.28151V6.39773H12.8214C13.5318 6.39773 14.2131 6.67859 14.7155 7.1785C15.2178 7.67842 15.5 8.35646 15.5 9.06345C15.5 9.77045 15.2178 10.4485 14.7155 10.9484C14.2131 11.4483 13.5318 11.7292 12.8214 11.7292H12.0639C11.6771 13.0924 10.8076 14.2702 9.61606 15.045C8.42451 15.8197 6.99145 16.1391 5.58167 15.9442C4.17188 15.7492 2.88066 15.053 1.94656 13.9842C1.01246 12.9154 0.498631 11.5462 0.500003 10.1297V6.28151ZM12.2621 10.6629H12.8214C13.2477 10.6629 13.6565 10.4944 13.9579 10.1944C14.2592 9.89447 14.4286 9.48765 14.4286 9.06345C14.4286 8.63926 14.2592 8.23244 13.9579 7.93248C13.6565 7.63253 13.2477 7.46402 12.8214 7.46402H12.2857V10.1297C12.2857 10.3096 12.2779 10.4873 12.2621 10.6629Z" fill="black"/>
</g>
<defs>
<clipPath id="clip0_299_4032">
<rect width="16" height="16" fill="white"/>
</clipPath>
</defs>
</svg>
