<svg width="16" height="16" viewBox="0 0 16 16" fill="none" xmlns="http://www.w3.org/2000/svg">
<g clip-path="url(#clip0_315_2207)">
<path d="M3.10794 9.255L3.13753 9.29833C3.1737 9.35333 3.21151 9.40667 3.24931 9.465L7.53315 15.705C7.59478 15.7947 7.67689 15.868 7.77249 15.9186C7.86809 15.9693 7.97434 15.9957 8.08219 15.9957C8.19004 15.9957 8.29629 15.9693 8.39189 15.9186C8.48749 15.868 8.5696 15.7947 8.63123 15.705L12.9052 9.47C12.9463 9.41167 12.9858 9.355 13.0252 9.30333L13.0515 9.26333C13.629 8.35733 13.955 7.31023 13.995 6.23224C14.035 5.15425 13.7877 4.08526 13.2789 3.1378C12.7702 2.19034 12.019 1.39946 11.1043 0.848408C10.1896 0.297358 9.14534 0.00652504 8.08137 0.00652504C7.01739 0.00652504 5.9731 0.297358 5.05842 0.848408C4.14373 1.39946 3.3925 2.19034 2.88379 3.1378C2.37508 4.08526 2.12772 5.15425 2.16775 6.23224C2.20777 7.31023 2.53371 8.35733 3.11123 9.26333L3.10794 9.255ZM8.08219 3.51C8.56987 3.51 9.0466 3.65662 9.45209 3.93133C9.85758 4.20603 10.1736 4.59648 10.3602 5.05329C10.5469 5.51011 10.5957 6.01277 10.5006 6.49773C10.4054 6.98268 10.1706 7.42814 9.82574 7.77777C9.4809 8.1274 9.04154 8.3655 8.56323 8.46196C8.08492 8.55843 7.58914 8.50892 7.13859 8.3197C6.68803 8.13048 6.30293 7.81005 6.03199 7.39893C5.76105 6.9878 5.61644 6.50445 5.61644 6.01C5.61644 5.34696 5.87622 4.71107 6.33864 4.24223C6.80106 3.77339 7.42823 3.51 8.08219 3.51Z" fill="#909090"/>
</g>
<defs>
<clipPath id="clip0_315_2207">
<rect width="12" height="16" fill="white" transform="translate(2)"/>
</clipPath>
</defs>
</svg>
