<svg width="16" height="16" viewBox="0 0 16 16" fill="none" xmlns="http://www.w3.org/2000/svg">
<path d="M13.5 0.500003C13.5 0.224003 13.2506 -0.00599668 12.9504 0.0350033C11.0711 0.292003 9.70605 2.047 9.63983 8.497C9.63983 8.62926 9.69766 8.75614 9.80066 8.84985C9.90366 8.94356 10.0434 8.99647 10.1894 8.997C10.8074 9.007 11.2929 9.127 11.2929 10V15.5C11.2929 15.6326 11.3511 15.7598 11.4545 15.8536C11.558 15.9473 11.6984 16 11.8447 16H12.9482C13.0946 16 13.2349 15.9473 13.3384 15.8536C13.4419 15.7598 13.5 15.6326 13.5 15.5V0.500003ZM3.84407 3.32209e-06C3.91723 3.32209e-06 3.98741 0.0263425 4.03915 0.0732266C4.09088 0.120111 4.11995 0.183699 4.11995 0.250003V5.372C4.11907 5.40595 4.13311 5.43882 4.15898 5.46339C4.18485 5.48796 4.22043 5.50221 4.25789 5.503C4.29535 5.5038 4.33163 5.49108 4.35874 5.46763C4.38585 5.44419 4.40158 5.41195 4.40245 5.378L4.65958 0.238003C4.66299 0.173628 4.69371 0.112934 4.74532 0.0685878C4.79693 0.0242421 4.86544 -0.000328725 4.93657 3.32209e-06H5.51261C5.58354 -7.07651e-05 5.65178 0.0246149 5.70315 0.0689342C5.75453 0.113254 5.78509 0.173801 5.7885 0.238003L6.04562 5.378C6.0465 5.41195 6.06222 5.44419 6.08933 5.46763C6.11644 5.49108 6.15272 5.5038 6.19018 5.503C6.22764 5.50221 6.26322 5.48796 6.28909 5.46339C6.31496 5.43882 6.329 5.40595 6.32812 5.372V0.250003C6.32812 0.183872 6.35704 0.120435 6.40854 0.0735792C6.46004 0.0267238 6.52993 0.000267847 6.6029 3.32209e-06H6.92293C7.0612 6.16811e-05 7.19441 0.0471614 7.29618 0.131979C7.39795 0.216796 7.46088 0.333149 7.47249 0.458003L7.93929 5.528C7.97261 5.88904 7.87702 6.25023 7.6666 6.55829C7.45619 6.86635 7.14209 7.10499 6.77064 7.239L6.71215 7.261C6.51811 7.33083 6.35253 7.45317 6.238 7.61136C6.12346 7.76955 6.06553 7.9559 6.0721 8.145L6.29391 15C6.29391 15.2575 6.18102 15.5045 5.98007 15.6866C5.77912 15.8687 5.50657 15.971 5.22238 15.971C4.93819 15.971 4.66564 15.8687 4.46469 15.6866C4.26374 15.5045 4.15085 15.2575 4.15085 15L4.37376 8.145C4.38033 7.9559 4.3224 7.76955 4.20787 7.61136C4.09333 7.45317 3.92776 7.33083 3.73371 7.261L3.67523 7.239C3.30358 7.10494 2.98935 6.86615 2.77892 6.55788C2.56849 6.24961 2.47301 5.8882 2.50658 5.527L2.97448 0.458003C2.98609 0.333149 3.04902 0.216796 3.15079 0.131979C3.25256 0.0471614 3.38577 6.16811e-05 3.52404 3.32209e-06H3.84407Z" fill="black"/>
</svg>
