<svg width="16" height="16" viewBox="0 0 16 16" fill="none" xmlns="http://www.w3.org/2000/svg">
<g clip-path="url(#clip0_205_941)">
<path d="M7.99875 14.47H1.65739C1.02924 14.47 0.530212 14.2119 0.232044 13.6537C0.107463 13.4078 0.0420619 13.1356 0.0411669 12.8592C0.0268199 10.4343 0.0311864 8.00915 0.0330577 5.58396C0.0330577 4.64493 0.677112 3.97821 1.61403 3.95675C2.16358 3.94413 2.71376 3.95391 3.26362 3.9536C3.8846 3.9536 4.04616 3.83559 4.23891 3.24838C4.36896 2.8527 4.49809 2.4567 4.63158 2.06229C4.75633 1.6969 4.98464 1.5284 5.36452 1.52809C7.12587 1.5264 8.88733 1.5264 10.6489 1.52809C11.031 1.52809 11.2627 1.69595 11.3846 2.0585C11.5287 2.48605 11.6653 2.91581 11.8079 3.3443C11.956 3.79488 12.1697 3.9517 12.6465 3.95328C13.1964 3.95517 13.7469 3.96906 14.2961 3.95076C15.3163 3.91636 16.014 4.74496 15.9994 5.65811C15.9613 8.04797 15.9682 10.4391 15.9972 12.8293C16.0075 13.6452 15.3441 14.4789 14.3651 14.4738C12.2433 14.4625 10.1209 14.47 7.99875 14.47ZM8.01902 4.76136C7.49376 4.76008 6.97338 4.86347 6.48761 5.06565C6.00184 5.26782 5.56019 5.56481 5.18787 5.93966C4.43594 6.6967 4.01207 7.72493 4.00951 8.79815C4.00695 9.87136 4.4259 10.9017 5.1742 11.6624C5.9225 12.4231 6.93886 12.8519 7.99969 12.8545C10.2119 12.8573 12.0075 11.0503 12.0103 8.81818C12.0128 6.5801 10.2253 4.76389 8.01871 4.76136H8.01902Z" fill="black"/>
<path d="M8.01061 11.233C7.53625 11.233 7.07253 11.0907 6.67816 10.824C6.28379 10.5573 5.97649 10.1783 5.79516 9.73482C5.61383 9.29137 5.56663 8.80346 5.65952 8.33285C5.75241 7.86224 5.98122 7.43009 6.317 7.09111C6.65277 6.75212 7.0804 6.52154 7.54577 6.42854C8.01114 6.33554 8.49331 6.38432 8.93127 6.56869C9.36922 6.75306 9.74326 7.06474 10.006 7.46427C10.2688 7.8638 10.4085 8.33323 10.4075 8.81313C10.4077 9.1314 10.3459 9.44659 10.2254 9.74062C10.105 10.0346 9.92839 10.3017 9.70571 10.5266C9.48302 10.7514 9.21865 10.9295 8.92777 11.0507C8.63688 11.1719 8.3252 11.2339 8.01061 11.233ZM8.69365 8.68849C8.76869 8.68941 8.84318 8.67529 8.91281 8.64696C8.98244 8.61862 9.04584 8.57663 9.09936 8.5234C9.15288 8.47016 9.19545 8.40674 9.22464 8.33679C9.25382 8.26683 9.26903 8.19173 9.2694 8.1158C9.26795 7.96254 9.20736 7.81591 9.10055 7.70721C8.99375 7.59851 8.84918 7.53633 8.6977 7.53395C8.62268 7.53366 8.54835 7.5484 8.47899 7.57732C8.40963 7.60624 8.34661 7.64876 8.29358 7.70245C8.24055 7.75613 8.19854 7.8199 8.17 7.89009C8.14145 7.96027 8.12692 8.03548 8.12725 8.11138C8.12526 8.18737 8.13851 8.26298 8.16622 8.33364C8.19392 8.4043 8.2355 8.46855 8.28844 8.52249C8.34139 8.57643 8.40459 8.61896 8.47423 8.64749C8.54388 8.67602 8.61852 8.68997 8.69365 8.68849Z" fill="black"/>
</g>
<defs>
<clipPath id="clip0_205_941">
<rect width="16" height="13" fill="white" transform="translate(0 1.5)"/>
</clipPath>
</defs>
</svg>
