<svg width="16" height="17" viewBox="0 0 16 17" fill="none" xmlns="http://www.w3.org/2000/svg">
<g clip-path="url(#clip0_157_1173)">
<g clip-path="url(#clip1_157_1173)">
<path d="M3.10794 9.97519L3.13753 10.0185C3.1737 10.0735 3.21151 10.1269 3.24931 10.1852L7.53315 16.4252C7.59478 16.5149 7.67689 16.5882 7.77249 16.6388C7.86809 16.6895 7.97434 16.7159 8.08219 16.7159C8.19004 16.7159 8.29629 16.6895 8.39189 16.6388C8.48749 16.5882 8.5696 16.5149 8.63123 16.4252L12.9052 10.1902C12.9463 10.1319 12.9858 10.0752 13.0252 10.0235L13.0515 9.98352C13.629 9.07752 13.955 8.03042 13.995 6.95243C14.035 5.87444 13.7877 4.80545 13.2789 3.85799C12.7702 2.91053 12.019 2.11965 11.1043 1.5686C10.1896 1.01755 9.14534 0.726715 8.08137 0.726715C7.01739 0.726715 5.9731 1.01755 5.05842 1.5686C4.14373 2.11965 3.3925 2.91053 2.88379 3.85799C2.37508 4.80545 2.12772 5.87444 2.16775 6.95243C2.20777 8.03042 2.53371 9.07752 3.11123 9.98352L3.10794 9.97519ZM8.08219 4.23019C8.56987 4.23019 9.0466 4.37681 9.45209 4.65152C9.85758 4.92622 10.1736 5.31667 10.3602 5.77348C10.5469 6.2303 10.5957 6.73296 10.5006 7.21792C10.4054 7.70287 10.1706 8.14833 9.82574 8.49796C9.4809 8.84759 9.04154 9.08569 8.56323 9.18215C8.08492 9.27862 7.58914 9.22911 7.13859 9.03989C6.68803 8.85067 6.30293 8.53024 6.03199 8.11912C5.76105 7.70799 5.61644 7.22464 5.61644 6.73019C5.61644 6.06715 5.87622 5.43126 6.33864 4.96242C6.80106 4.49358 7.42823 4.23019 8.08219 4.23019Z" fill="black"/>
</g>
</g>
<defs>
<clipPath id="clip0_157_1173">
<rect width="16" height="16" fill="white" transform="translate(0 0.720184)"/>
</clipPath>
<clipPath id="clip1_157_1173">
<rect width="12" height="16" fill="white" transform="translate(2 0.720184)"/>
</clipPath>
</defs>
</svg>
