<svg width="16" height="16" viewBox="0 0 16 16" fill="none" xmlns="http://www.w3.org/2000/svg">
<g clip-path="url(#clip0_157_948)">
<path fill-rule="evenodd" clip-rule="evenodd" d="M7.90781 0C10.132 0 11.9374 1.78196 11.9374 3.97727C11.9374 6.17258 10.132 7.95455 7.90781 7.95455C5.68362 7.95455 3.87821 6.17258 3.87821 3.97727C3.87821 1.78196 5.68362 0 7.90781 0ZM10.7861 9.09091C13.011 9.09091 14.8157 10.8722 14.8157 13.0682V13.7976C14.8157 14.6456 14.1846 15.3643 13.3341 15.4851L13.3319 15.4858C11.5222 15.7351 9.71313 15.8601 7.90786 15.8601C6.09742 15.8608 4.28905 15.7351 2.48305 15.4851H2.48089C1.63107 15.3636 1.00072 14.6456 1.00072 13.7997C1 13.5781 1 13.3295 1 13.0682C1 10.8722 2.80469 9.09091 5.02961 9.09091L10.7861 9.09091Z" fill="black"/>
</g>
<defs>
<clipPath id="clip0_157_948">
<rect width="15.8157" height="15.8601" fill="white"/>
</clipPath>
</defs>
</svg>
