<svg width="16" height="16" viewBox="0 0 16 16" fill="none" xmlns="http://www.w3.org/2000/svg">
<g clip-path="url(#clip0_157_1306)">
<path d="M12.6501 3.5032H3.18981C3.12412 3.5032 3.05842 3.53693 3.00915 3.58752C2.95987 3.63811 2.94345 3.70556 2.94345 3.77302L3.66611 14.0933C3.71538 14.7847 4.25737 15.3412 4.88149 15.3412H10.9584C11.5825 15.3412 12.1245 14.8015 12.1738 14.0933L12.8964 3.77302C12.8964 3.70556 12.88 3.63811 12.8307 3.58752C12.7979 3.53693 12.7322 3.5032 12.6501 3.5032ZM5.62057 13.0815C5.60415 13.0815 5.60415 13.0815 5.58772 13.0815C5.4399 13.0815 5.29209 13.014 5.17712 12.9129C5.04573 12.7948 4.96361 12.6093 4.96361 12.4238L4.6844 6.48799C4.66797 6.117 4.93076 5.7966 5.29209 5.76287C5.45633 5.76287 5.62057 5.81346 5.73554 5.9315C5.86693 6.04955 5.94905 6.23504 5.94905 6.42054L6.22826 12.3564C6.24468 12.7274 5.9819 13.0646 5.62057 13.0815ZM8.56047 12.4913C8.56047 12.8117 8.29769 13.0815 7.98563 13.0815H7.87066C7.55861 13.0815 7.29582 12.8117 7.29582 12.4913V6.35308C7.29582 6.03268 7.55861 5.76287 7.87066 5.76287H7.98563C8.29769 5.76287 8.56047 6.03268 8.56047 6.35308V12.4913ZM10.8763 12.4238C10.8763 12.6093 10.7941 12.7948 10.6627 12.9129C10.5478 13.014 10.4 13.0815 10.2521 13.0815C10.2357 13.0815 10.2357 13.0815 10.2193 13.0815C9.8744 13.0646 9.59519 12.7442 9.61161 12.3564L9.89082 6.42054C9.89082 6.23504 9.97294 6.06641 10.1043 5.9315C10.2357 5.81346 10.3835 5.76287 10.5478 5.76287C10.8927 5.77973 11.1719 6.10013 11.1555 6.48799L10.8763 12.4238Z" fill="black"/>
<path d="M12.1409 1.44588H9.8087C9.75943 0.805077 9.25028 0.282318 8.60974 0.282318H7.23012C6.58959 0.282318 6.06402 0.788214 6.01474 1.44588H3.69895C3.04199 1.44588 2.5 2.00236 2.5 2.67689V2.86239C2.5 2.99729 2.61497 3.11533 2.74636 3.11533H13.1099C13.2413 3.11533 13.3563 2.99729 13.3563 2.86239V2.67689C13.3563 2.00236 12.8143 1.44588 12.1409 1.44588ZM7.23012 0.805077H8.60974C8.97107 0.805077 9.28313 1.09175 9.31598 1.46274H6.52389C6.55674 1.09175 6.86879 0.805077 7.23012 0.805077Z" fill="black"/>
</g>
<defs>
<clipPath id="clip0_157_1306">
<rect width="11" height="16" fill="white" transform="translate(2.5)"/>
</clipPath>
</defs>
</svg>
