<svg width="16" height="16" viewBox="0 0 16 16" fill="none" xmlns="http://www.w3.org/2000/svg">
<g clip-path="url(#clip0_283_1450)">
<path fill-rule="evenodd" clip-rule="evenodd" d="M6.48558 0.0361328H9.51399C10.1053 0.0361328 10.5602 0.544569 10.4935 1.13289L9.56859 9.33079C9.51199 9.83216 9.0925 10.2062 8.58909 10.2062H7.43675C6.93336 10.2062 6.51487 9.83317 6.45725 9.33382L5.50706 1.13591C5.43731 0.547622 5.89325 0.0361328 6.48558 0.0361328ZM7.99981 12.052C9.08039 12.052 9.95577 12.9273 9.95577 14.0079C9.95577 15.0885 9.08039 15.9639 7.99981 15.9639C6.91923 15.9639 6.04386 15.0885 6.04386 14.0079C6.04386 12.9283 6.91923 12.052 7.99981 12.052Z" fill="black"/>
</g>
<defs>
<clipPath id="clip0_283_1450">
<rect width="5" height="16" fill="white" transform="translate(5.5)"/>
</clipPath>
</defs>
</svg>
